<?xml version="1.0" encoding="UTF-8" standalone="no"?>
<!DOCTYPE svg PUBLIC "-//W3C//DTD SVG 1.1//EN" "http://www.w3.org/Graphics/SVG/1.1/DTD/svg11.dtd">
<svg width="100%" height="100%" viewBox="0 0 1064 1064" version="1.1" xmlns="http://www.w3.org/2000/svg" xmlns:xlink="http://www.w3.org/1999/xlink" xml:space="preserve" xmlns:serif="http://www.serif.com/" style="fill-rule:evenodd;clip-rule:evenodd;stroke-linecap:round;stroke-linejoin:round;stroke-miterlimit:1.5;">
    <g transform="matrix(1,0,0,1,-300.889,-301.396)">
        <g transform="matrix(0.868564,0,0,0.868564,92.1616,162.26)">
            <circle cx="852.746" cy="772.624" r="604.038" style="fill:white;stroke:black;stroke-width:16.79px;"/>
        </g>
        <g transform="matrix(0.575627,0,0,0.575627,353.644,353.644)">
            <g transform="matrix(1.01757,-0.0943971,0.0943971,1.01757,-144.574,-22.701)">
                <path d="M856.203,765.45C856.203,765.45 773.559,713.769 777.501,611.252C781.443,508.736 848.577,328.546 937.514,261.259" style="fill:none;stroke:black;stroke-width:24.79px;"/>
            </g>
            <g transform="matrix(-1.01764,-0.0935846,-0.0935846,1.01764,1812.58,-23.4541)">
                <path d="M856.203,765.45C856.203,765.45 773.559,713.769 777.501,611.252C781.443,508.736 848.577,328.546 937.514,261.259" style="fill:none;stroke:black;stroke-width:24.79px;"/>
            </g>
            <g transform="matrix(1,0,0,1,-69.0156,228.544)">
                <path d="M903.231,990.861C903.231,990.861 929.979,801.119 1157.18,738.871C1216.65,1007.91 1002.86,1116.07 906.46,1132.82L903.231,990.861Z" style="fill:none;stroke:black;stroke-width:25.33px;"/>
            </g>
            <g transform="matrix(1,0,0,1,-70.779,-108.552)">
                <path d="M903.231,990.861C903.231,990.861 929.979,801.119 1157.18,738.871C1216.65,1007.91 1002.86,1116.07 906.46,1132.82L903.231,990.861Z" style="fill:none;stroke:black;stroke-width:25.33px;"/>
            </g>
            <g transform="matrix(-1,0,0,1,1735.68,220.776)">
                <path d="M903.231,990.861C903.231,990.861 929.979,801.119 1157.18,738.871C1216.65,1007.91 1002.86,1116.07 906.46,1132.82L903.231,990.861Z" style="fill:none;stroke:black;stroke-width:25.33px;"/>
            </g>
            <g transform="matrix(-1,0,0,1,1735.68,-108.552)">
                <path d="M903.231,990.861C903.231,990.861 929.979,801.119 1157.18,738.871C1216.65,1007.91 1002.86,1116.07 906.46,1132.82L903.231,990.861Z" style="fill:none;stroke:black;stroke-width:25.33px;"/>
            </g>
            <g transform="matrix(1,0,0,1.02047,0.881717,-101.074)">
                <path d="M833.192,746.827L833.192,1580.73" style="fill:none;stroke:black;stroke-width:25.08px;"/>
            </g>
        </g>
    </g>
</svg>
